<?xml version="1.0" encoding="UTF-8" standalone="no"?>
<svg
   xmlns:dc="http://purl.org/dc/elements/1.1/"
   xmlns:cc="http://creativecommons.org/ns#"
   xmlns:rdf="http://www.w3.org/1999/02/22-rdf-syntax-ns#"
   xmlns:svg="http://www.w3.org/2000/svg"
   xmlns="http://www.w3.org/2000/svg"
   xmlns:sodipodi="http://sodipodi.sourceforge.net/DTD/sodipodi-0.dtd"
   xmlns:inkscape="http://www.inkscape.org/namespaces/inkscape"
   height="600"
   width="600"
   sodipodi:docname="rock.svg"
   inkscape:version="1.0 (4035a4fb49, 2020-05-01)"
   version="1.1"
   viewBox="0 0 600 600"
   xml:space="preserve"
   id="svg2"><sodipodi:namedview
   inkscape:current-layer="svg2"
   inkscape:window-maximized="0"
   inkscape:window-y="112"
   inkscape:window-x="275"
   inkscape:cy="336.12207"
   inkscape:cx="334.36113"
   inkscape:zoom="0.9983453"
   showgrid="false"
   id="namedview238"
   inkscape:window-height="939"
   inkscape:window-width="1592"
   inkscape:pageshadow="2"
   inkscape:pageopacity="0"
   guidetolerance="10"
   gridtolerance="10"
   objecttolerance="10"
   borderopacity="1"
   bordercolor="#666666"
   pagecolor="#ffffff" />
  <defs
   id="defs6">
    <clipPath
   id="clipPath18">
      <path
   inkscape:connector-curvature="0"
   d="m 0,-0.19192 h 124 v 36 H 0 Z"
   id="path20" />
    </clipPath>
    <mask
   id="mask22">
      <g
   id="g24">
        <g
   clip-path="url(#clipPath18)"
   id="g26">
          <path
   inkscape:connector-curvature="0"
   d="m 0,-0.19192 h 124 v 36 H 0 Z"
   style="fill:#000000;fill-opacity:0.6289"
   id="path28" />
        </g>
      </g>
    </mask>
    <clipPath
   id="clipPath34">
      <path
   inkscape:connector-curvature="0"
   d="m 0,-0.19192 h 124 v 36 H 0 Z"
   id="path36" />
    </clipPath>
    <clipPath
   id="clipPath38">
      <path
   inkscape:connector-curvature="0"
   d="M 0,0 H 124 V 36 H 0 Z"
   id="path40" />
    </clipPath>
    <clipPath
   id="clipPath42">
      <path
   inkscape:connector-curvature="0"
   d="M 123.6,18.07 C 123.6,13.137 117.572,8.926 105.518,5.434 93.439,1.938 78.865,0.191 61.799,0.191 44.732,0.191 30.17,1.938 18.119,5.434 6.037,8.926 -0.002,13.137 -0.002,18.07 c 0,4.934 6.039,9.16 18.121,12.684 12.051,3.492 26.613,5.238 43.68,5.238 17.066,0 31.64,-1.746 43.719,-5.238 C 117.572,27.23 123.6,23.004 123.6,18.07 Z"
   id="path44" />
    </clipPath>
    <clipPath
   id="clipPath46">
      <path
   inkscape:connector-curvature="0"
   d="M 0,-103.06 H 155 V 56.63 H 0 Z"
   id="path48" />
    </clipPath>
    <radialGradient
   r="66.574997"
   cx="77.050003"
   cy="-22.65"
   gradientUnits="userSpaceOnUse"
   id="radialGradient50">
      <stop
   offset="0"
   style="stop-color:#ffffff;stop-opacity:.61961"
   id="stop52" />
      <stop
   offset="1"
   style="stop-color:#ffffff;stop-opacity:0"
   id="stop54" />
    </radialGradient>
    <mask
   id="mask56">
      <g
   id="g58">
        <g
   clip-path="url(#clipPath46)"
   id="g60">
          <path
   inkscape:connector-curvature="0"
   d="M 0,-103.06 H 155 V 56.63 H 0 Z"
   style="fill:url(#radialGradient50)"
   id="path62" />
        </g>
      </g>
    </mask>
    <radialGradient
   r="66.574997"
   cx="77.050003"
   cy="-22.65"
   gradientUnits="userSpaceOnUse"
   id="radialGradient64">
      <stop
   offset="0"
   style="stop-color:#000000"
   id="stop66" />
      <stop
   offset="1"
   style="stop-color:#000000"
   id="stop68" />
    </radialGradient>
    <clipPath
   id="clipPath100">
      <path
   inkscape:connector-curvature="0"
   d="m 18,5.8081 h 88 v 25 H 18 Z"
   id="path102" />
    </clipPath>
    <mask
   id="mask104">
      <g
   id="g106">
        <g
   clip-path="url(#clipPath100)"
   id="g108">
          <path
   inkscape:connector-curvature="0"
   d="m 18,5.8081 h 88 v 25 H 18 Z"
   style="fill:#000000;fill-opacity:0.1406"
   id="path110" />
        </g>
      </g>
    </mask>
    <clipPath
   id="clipPath116">
      <path
   inkscape:connector-curvature="0"
   d="m 18,5.8081 h 88 v 25 H 18 Z"
   id="path118" />
    </clipPath>
    <clipPath
   id="clipPath120">
      <path
   inkscape:connector-curvature="0"
   d="m 18,6 h 88 V 31 H 18 Z"
   id="path122" />
    </clipPath>
    <linearGradient
   x1="-1062.3"
   y1="-14331"
   gradientTransform="matrix(0.16248,-0.78336,0.79288,0.11648,11622,891.67)"
   x2="-1057.5"
   gradientUnits="userSpaceOnUse"
   y2="-14331"
   id="linearGradient256">
      <stop
   offset="0"
   style="stop-color:#73777a"
   id="stop258" />
      <stop
   offset="1"
   style="stop-color:#8d9296"
   id="stop260" />
    </linearGradient>
    <linearGradient
   x1="-352.64001"
   y1="-15252"
   gradientTransform="matrix(0.08432,-0.79552,0.80016,0.04056,12316,373.15)"
   x2="-348.84"
   gradientUnits="userSpaceOnUse"
   y2="-15252"
   id="linearGradient274">
      <stop
   offset="0"
   style="stop-color:#73777a"
   id="stop276" />
      <stop
   offset="1"
   style="stop-color:#8d9296"
   id="stop278" />
    </linearGradient>
    <linearGradient
   x1="-3252.5"
   y1="-7983.8999"
   gradientTransform="matrix(0.57096,-0.5604,0.58992,0.542,6656.4,2542.7)"
   x2="-3248.7"
   gradientUnits="userSpaceOnUse"
   y2="-7983.8999"
   id="linearGradient292">
      <stop
   offset="0"
   style="stop-color:#73777a"
   id="stop294" />
      <stop
   offset="1"
   style="stop-color:#8d9296"
   id="stop296" />
    </linearGradient>
    <linearGradient
   x1="-2399.3999"
   y1="-3800.8"
   gradientTransform="matrix(0.73728,-0.31056,0.31056,0.73728,3035.1,2103.8)"
   x2="-2396.3"
   gradientUnits="userSpaceOnUse"
   y2="-3800.8"
   id="linearGradient310">
      <stop
   offset="0"
   style="stop-color:#73777a"
   id="stop312" />
      <stop
   offset="1"
   style="stop-color:#8d9296"
   id="stop314" />
    </linearGradient>
    <linearGradient
   x1="-2931.5"
   y1="-4885.6001"
   gradientTransform="matrix(0.702,-0.38368,0.4164,0.68408,4181.9,2264.5)"
   x2="-2929.1001"
   gradientUnits="userSpaceOnUse"
   y2="-4885.6001"
   id="linearGradient328">
      <stop
   offset="0"
   style="stop-color:#73777a"
   id="stop330" />
      <stop
   offset="1"
   style="stop-color:#8d9296"
   id="stop332" />
    </linearGradient>
    <linearGradient
   x1="-1653.6"
   y1="-13402"
   gradientTransform="matrix(0.23624,-0.76432,0.77696,0.19544,10894,1379.2)"
   x2="-1650.7"
   gradientUnits="userSpaceOnUse"
   y2="-13402"
   id="linearGradient346">
      <stop
   offset="0"
   style="stop-color:#73777a"
   id="stop348" />
      <stop
   offset="1"
   style="stop-color:#8d9296"
   id="stop350" />
    </linearGradient>
    <linearGradient
   x1="-1202.3"
   y1="-14691"
   gradientTransform="matrix(0.1352,-0.78848,0.78848,0.1352,11808,1085.4)"
   x2="-1193.5"
   gradientUnits="userSpaceOnUse"
   y2="-14691"
   id="linearGradient364">
      <stop
   offset="0"
   style="stop-color:#92979c"
   id="stop366" />
      <stop
   offset="1"
   style="stop-color:#e3e4e6"
   id="stop368" />
    </linearGradient>
    <linearGradient
   x1="78.206001"
   y1="-16119"
   gradientTransform="matrix(0.00624,-0.8,0.80008,-0.00288,12949,56.05)"
   x2="84.655998"
   gradientUnits="userSpaceOnUse"
   y2="-16119"
   id="linearGradient382">
      <stop
   offset="0"
   style="stop-color:#92979c"
   id="stop384" />
      <stop
   offset="1"
   style="stop-color:#e3e4e6"
   id="stop386" />
    </linearGradient>
    <linearGradient
   x1="-2050.8999"
   y1="-13176"
   gradientTransform="matrix(0.2572,-0.75752,0.76152,0.24552,10598,1731.3)"
   x2="-2043.8"
   gradientUnits="userSpaceOnUse"
   y2="-13176"
   id="linearGradient400">
      <stop
   offset="0"
   style="stop-color:#92979c"
   id="stop402" />
      <stop
   offset="1"
   style="stop-color:#e3e4e6"
   id="stop404" />
    </linearGradient>
    <linearGradient
   x1="-1141.2"
   y1="-14599"
   gradientTransform="matrix(0.1452,-0.78672,0.79,0.12752,11738,1009)"
   x2="-1136.9"
   gradientUnits="userSpaceOnUse"
   y2="-14599"
   id="linearGradient418">
      <stop
   offset="0"
   style="stop-color:#92979c"
   id="stop420" />
      <stop
   offset="1"
   style="stop-color:#e3e4e6"
   id="stop422" />
    </linearGradient>
    <linearGradient
   x1="-618.48999"
   y1="-15430"
   gradientTransform="matrix(0.072,-0.79672,0.79672,0.072,12388,638.68)"
   x2="-611.58002"
   gradientUnits="userSpaceOnUse"
   y2="-15430"
   id="linearGradient436">
      <stop
   offset="0"
   style="stop-color:#92979c"
   id="stop438" />
      <stop
   offset="1"
   style="stop-color:#e3e4e6"
   id="stop440" />
    </linearGradient>
    <linearGradient
   x1="-65.594002"
   y1="-16040"
   gradientTransform="matrix(0.0136,-0.79992,0.79992,0.0136,12887,188.96)"
   x2="-59.717999"
   gradientUnits="userSpaceOnUse"
   y2="-16040"
   id="linearGradient454">
      <stop
   offset="0"
   style="stop-color:#92979c"
   id="stop456" />
      <stop
   offset="1"
   style="stop-color:#e3e4e6"
   id="stop458" />
    </linearGradient>
    <linearGradient
   x1="2363.5"
   y1="-17956"
   gradientTransform="matrix(-0.20304,-0.77376,0.77376,-0.20304,14434,-1784.8)"
   x2="2368.8"
   gradientUnits="userSpaceOnUse"
   y2="-17956"
   id="linearGradient472">
      <stop
   offset="0"
   style="stop-color:#92979c"
   id="stop474" />
      <stop
   offset="1"
   style="stop-color:#e3e4e6"
   id="stop476" />
    </linearGradient>
    <linearGradient
   x1="332.98001"
   y1="-16305"
   gradientTransform="matrix(-0.01072,-0.79992,0.79968,-0.03056,13082,-169.42)"
   x2="338.57999"
   gradientUnits="userSpaceOnUse"
   y2="-16305"
   id="linearGradient490">
      <stop
   offset="0"
   style="stop-color:#92979c"
   id="stop492" />
      <stop
   offset="1"
   style="stop-color:#e3e4e6"
   id="stop494" />
    </linearGradient>
    <linearGradient
   x1="49.943001"
   y1="-16208"
   gradientTransform="matrix(-0.00192,-0.8,0.8,-0.00192,13014,63.666)"
   x2="55.118"
   gradientUnits="userSpaceOnUse"
   y2="-16208"
   id="linearGradient508">
      <stop
   offset="0"
   style="stop-color:#92979c"
   id="stop510" />
      <stop
   offset="1"
   style="stop-color:#e3e4e6"
   id="stop512" />
    </linearGradient>
    <linearGradient
   x1="-2114.2"
   y1="-12700"
   gradientTransform="matrix(0.28968,-0.74568,0.76072,0.25104,10328,1680.8)"
   x2="-2110.5"
   gradientUnits="userSpaceOnUse"
   y2="-12700"
   id="linearGradient526">
      <stop
   offset="0"
   style="stop-color:#92979c"
   id="stop528" />
      <stop
   offset="1"
   style="stop-color:#e3e4e6"
   id="stop530" />
    </linearGradient>
    <linearGradient
   x1="-2127.5"
   y1="-13222"
   gradientTransform="matrix(0.25144,-0.75944,0.75944,0.25144,10628,1795.5)"
   x2="-2121.7"
   gradientUnits="userSpaceOnUse"
   y2="-13222"
   id="linearGradient544">
      <stop
   offset="0"
   style="stop-color:#92979c"
   id="stop546" />
      <stop
   offset="1"
   style="stop-color:#e3e4e6"
   id="stop548" />
    </linearGradient>
  </defs>
  <g
   transform="matrix(4.9334454,0,0,-4.9334454,1.872351,555.75763)"
   id="g10">
    <g
   id="g12">
      <g
   id="g14">
        <g
   mask="url(#mask22)"
   id="g30">
          <g
   id="g70">
            <g
   clip-path="url(#clipPath34)"
   id="g72">
              <g
   transform="translate(0,-0.19192)"
   id="g74">
                <g
   id="g78">
                  <g
   clip-path="url(#clipPath38)"
   id="g80">
                    <g
   id="g82">
                      <g
   id="g84">
                        <g
   clip-path="url(#clipPath42)"
   id="g86">
                          <g
   transform="matrix(0.8,0,0,-0.22544,0,12.766)"
   id="g88">
                            <g
   mask="url(#mask56)"
   id="g92">
                              <path
   inkscape:connector-curvature="0"
   d="M 123.6,18.07 C 123.6,13.137 117.572,8.926 105.518,5.434 93.439,1.938 78.865,0.191 61.799,0.191 44.732,0.191 30.17,1.938 18.119,5.434 6.037,8.926 -0.002,13.137 -0.002,18.07 c 0,4.934 6.039,9.16 18.121,12.684 12.051,3.492 26.613,5.238 43.68,5.238 17.066,0 31.64,-1.746 43.719,-5.238 C 117.572,27.23 123.6,23.004 123.6,18.07 Z"
   style="fill:url(#radialGradient64);fill-rule:evenodd"
   id="path94" />
                            </g>
                          </g>
                        </g>
                      </g>
                    </g>
                  </g>
                </g>
              </g>
            </g>
          </g>
        </g>
      </g>
      <g
   id="g96">
        <g
   mask="url(#mask104)"
   id="g112">
          <g
   id="g124">
            <g
   clip-path="url(#clipPath116)"
   id="g126">
              <g
   transform="translate(0,-0.19192)"
   id="g128">
                <g
   id="g132">
                  <g
   clip-path="url(#clipPath120)"
   id="g134">
                    <g
   id="g136">
                      <path
   inkscape:connector-curvature="0"
   d="m 102.32,26.871 -1.199,-0.68 0.598,-1.519 1.883,-1 c 0.718,-0.371 1.078,-0.574 1.078,-0.602 0,-0.132 0.105,-0.293 0.32,-0.476 0.375,-0.321 0.387,-0.551 0.039,-0.684 -0.531,-0.133 -0.906,-0.238 -1.117,-0.316 -1.067,-0.403 -1.867,-0.735 -2.402,-1 -0.321,-0.16 -0.254,-0.403 0.199,-0.723 0.242,-0.16 0.508,-0.293 0.801,-0.398 -1.067,-0.321 -2.04,-0.586 -2.918,-0.801 -0.479,-0.106 -1.014,-0.414 -1.6,-0.918 -0.773,-0.668 -1.305,-1.094 -1.602,-1.281 -0.503,-0.321 -0.453,-0.653 0.161,-1 0.933,-0.535 1.414,-0.828 1.441,-0.879 0.16,-0.242 -0.547,-0.481 -2.121,-0.723 -2.348,-0.266 -4.266,-0.492 -5.758,-0.68 -1.707,-0.238 -2.562,-0.492 -2.562,-0.757 0,-0.457 -0.254,-0.801 -0.758,-1.043 -0.856,-0.399 -1.348,-0.879 -1.481,-1.438 -0.054,-0.32 -0.121,-0.84 -0.199,-1.562 -0.16,-0.532 -0.855,-0.786 -2.082,-0.758 -2.746,0.133 -5.652,0.254 -8.719,0.359 -3.359,0.106 -5.359,0.133 -6,0.078 -0.558,-0.05 -1.558,-0.05 -3,0 -2.027,0.082 -2.851,-0.011 -2.48,-0.277 0.48,-0.375 0.64,-0.574 0.48,-0.602 -0.48,-0.078 -1.441,-0.105 -2.879,-0.078 -1.574,0.051 -2.652,0.078 -3.242,0.078 -1.172,0 -2.133,-0.171 -2.879,-0.519 -0.375,-0.16 -1.558,-0.133 -3.558,0.082 -2.137,0.184 -4.149,0.492 -6.043,0.918 -1.653,0.375 -1.531,0.707 0.359,1 0.934,0.133 2.043,0.238 3.32,0.32 -1.171,0.051 -2.359,0.16 -3.558,0.32 -2.453,0.321 -3.801,0.708 -4.039,1.161 -0.215,0.398 -0.707,0.558 -1.481,0.48 -2.082,-0.293 -3.945,-0.453 -5.601,-0.48 -2.559,-0.028 -2.305,0.254 0.761,0.839 1.52,0.293 3.293,0.586 5.321,0.879 l -7.281,0.879 c -0.852,0.11 -1.801,0.43 -2.84,0.961 -1.067,0.535 -1.227,0.813 -0.481,0.84 0.586,0.055 0.574,0.106 -0.039,0.16 -0.961,0.106 -1.508,0.188 -1.64,0.242 -0.239,0.079 -0.532,0.321 -0.879,0.719 -0.293,0.348 -0.508,0.641 -0.641,0.879 -0.055,0.133 -0.121,0.215 -0.199,0.242 -0.16,0.106 -0.387,0.293 -0.68,0.559 -0.293,0.266 -0.562,0.375 -0.801,0.32 -0.64,-0.105 -1.547,-0.105 -2.718,0 -1.442,0.106 -2.481,0.281 -3.122,0.52 -0.292,0.105 -0.453,0.199 -0.48,0.281 2.535,0.531 4.133,0.801 4.801,0.801 l -0.84,0.039 c -1.121,0.055 -1.734,0.105 -1.84,0.16 -0.16,0.027 -0.066,0.105 0.277,0.238 0.321,0.106 0.59,0.16 0.801,0.16 0.133,0 0.563,0.121 1.281,0.36 0.879,0.32 1.559,0.535 2.04,0.64 0.48,0.082 0.652,0.133 0.519,0.161 -0.398,0.027 -0.641,0.105 -0.719,0.242 -0.105,0.211 -0.054,0.398 0.16,0.558 0.215,0.16 0.52,0.239 0.918,0.239 0.348,0 0.68,0.066 1,0.203 0.11,0.051 0.414,0.211 0.922,0.476 0.453,0.27 0.946,0.84 1.481,1.723 l -1.281,0.598 c -0.239,0.187 -0.454,0.375 -0.641,0.562 -0.399,0.399 -0.52,0.641 -0.359,0.719 0.535,0.266 1.335,0.398 2.402,0.398 0.238,0 0.558,0.067 0.957,0.203 0.242,0.079 0.519,0.184 0.84,0.321 2.082,0.426 3.906,0.652 5.48,0.679 2.215,0.079 4.746,0.118 7.602,0.118 0.824,0.027 2.133,0.136 3.918,0.32 2.054,0.215 4.281,0.375 6.679,0.48 1.977,0.082 4.297,0.282 6.961,0.602 1.868,0.238 3.481,0.305 4.84,0.199 2.028,-0.16 7.336,-0.695 15.922,-1.601 1.84,-0.211 4.664,-0.266 8.481,-0.161 4.425,0.11 6.691,0.161 6.796,0.161 0.883,-0.051 1.403,-0.133 1.563,-0.239 0.32,-0.265 0.801,-0.492 1.437,-0.679 1.547,-0.453 2.188,-0.653 1.922,-0.602 z"
   style="fill:#000000;fill-rule:evenodd"
   id="path138" />
                    </g>
                  </g>
                </g>
              </g>
            </g>
          </g>
        </g>
      </g>
      <path
   inkscape:connector-curvature="0"
   d="m 92.238,77.679 -0.277,-4.84 c -4.668,-10.132 -8,-16.824 -10,-20.078 -1.359,-2.269 -4.629,-0.336 -9.801,5.797 -5.066,6.777 -7.812,10.309 -8.238,10.602 -0.828,0.613 -6.242,3.972 -16.242,10.082 l -4.078,7.918 -5.204,5.48 3.364,-0.121 c 2.023,-0.105 3.812,-0.133 5.359,-0.078 l 1.199,0.719 c 1.012,0.48 2,0.695 2.961,0.64 1.547,-0.082 3.039,-0.226 4.481,-0.441 l 2.879,-1.277 c 2.054,-0.856 3.453,-1.309 4.199,-1.364 1.199,-0.051 2.508,-0.199 3.922,-0.437 l 1.636,-1.602 c 1.176,-1.066 1.977,-1.613 2.403,-1.64 0.719,-0.051 1.906,-0.532 3.558,-1.438 l 1,-0.922 c 0.829,-0.691 1.602,-1.32 2.321,-1.879 0.613,-0.453 1.187,-0.761 1.718,-0.922 0.668,-0.183 1.336,-0.492 2,-0.918 1.414,-0.906 3.321,-1.492 5.723,-1.761 l 1.758,-0.797 c 1.254,-0.535 2.027,-0.817 2.32,-0.844 0.481,-0.023 0.828,0.016 1.039,0.121 z"
   style="fill:#e3e4e6;fill-rule:evenodd"
   id="path140" />
      <path
   inkscape:connector-curvature="0"
   d="m 57.199,88.999 c -0.664,-0.054 -1.254,-0.078 -1.758,-0.078 -0.961,0 -1.613,0.106 -1.961,0.321 l -3.601,2.398 0.883,-0.32 c 0.746,-0.215 1.558,-0.321 2.437,-0.321 h 3.082 l 0.278,1.84 1.722,-0.757 c 1.25,-0.536 2.094,-0.856 2.52,-0.961 0.719,-0.188 1.398,-0.321 2.039,-0.403 l -2.442,-1.476 z"
   style="fill:#d3d4d6;fill-rule:evenodd"
   id="path142" />
      <path
   inkscape:connector-curvature="0"
   d="m 66.762,90.281 3.117,-2.879 0.402,-0.684 -0.402,-0.797 h -2.277 c -1.227,0.078 -2.028,0.305 -2.403,0.68 l -1.719,1.438 2.918,-0.637 v 0.519 z"
   style="fill:#d3d4d6;fill-rule:evenodd"
   id="path144" />
      <path
   inkscape:connector-curvature="0"
   d="m 87.602,79.242 1.199,-0.243 c 0.371,-0.105 1.172,-0.585 2.398,-1.441 L 90.68,76.039 V 75.121 L 90.16,73.8 c -0.187,-0.453 -0.64,-0.894 -1.359,-1.32 l -1.321,0.519 v 0.641 l 2,2.281 0.122,1.719 -2.122,0.68 -0.519,-0.68 c -1.176,0 -2.027,0.094 -2.563,0.281 -0.32,0.106 -0.679,0.012 -1.078,-0.281 l -0.519,-0.519 -1.199,-1.481 -1.442,2.68 0.52,0.679 0.519,1.04 -2.801,0.96 -1.839,0.243 -0.68,-0.801 -0.68,-0.242 L 74,79.64 v -2.519 l 0.398,-2.52 c 0.11,-0.375 -0.105,-1 -0.636,-1.883 l -1.602,-1.879 -4.558,4.68 4,3.32 c 0.371,0.266 0.636,0.801 0.796,1.602 l 0.282,0.801 h 0.679 c 0.266,0.371 0.403,0.73 0.403,1.078 l 0.597,3.281 2.719,-1.16 1.082,-0.641 2,-0.801 1.039,-0.96 0.879,-0.438 c 0.695,-0.348 1.297,-0.602 1.801,-0.762 0.801,-0.265 2.043,-0.8 3.723,-1.597 z"
   style="fill:#d3d4d6;fill-rule:evenodd"
   id="path146" />
      <path
   inkscape:connector-curvature="0"
   d="m 92.039,76.558 0.199,1.121 0.403,-4.437 c 0.293,-3.203 0.558,-5.43 0.8,-6.684 l 0.52,-3 -0.52,-1.519 C 93.094,60.785 92.945,59.601 93,58.48 c 0.188,-3.387 0.281,-5.199 0.281,-5.441 0,-0.184 0.117,-1.454 0.36,-3.797 0.214,-2.348 0.304,-3.883 0.281,-4.602 L 94,43.359 c 0.105,-1.094 0.32,-2.211 0.641,-3.36 0.32,-1.199 0.547,-2.214 0.679,-3.039 0,-0.16 0.067,-0.961 0.2,-2.402 0.242,-2.773 0.613,-4.863 1.121,-6.277 0.371,-1.121 0.812,-2.586 1.32,-4.403 -1.387,-0.824 -2.723,-1.652 -4,-2.476 -0.773,-0.508 -1.723,-1.254 -2.84,-2.242 l -1.402,-1.321 c -2.371,-1.121 -4.25,-1.824 -5.641,-2.121 -0.879,-0.16 -2.023,-0.652 -3.437,-1.476 -0.696,-0.403 -1.309,-0.789 -1.84,-1.16 l -3.121,-0.122 -9.641,12.442 17.723,34.117 1.957,6.801 0.562,1.082 c 0.453,0.769 0.946,1.316 1.481,1.637 0.504,0.296 0.84,0.96 1,2 l 0.039,1.441 1.039,0.281 c 0.719,0.321 1.215,0.813 1.48,1.481 0.293,0.664 0.535,1.437 0.719,2.316 z"
   style="fill:#83888c;fill-rule:evenodd"
   id="path148" />
      <path
   inkscape:connector-curvature="0"
   d="m 81.121,45.839 0.481,1.16 L 85,45.601 85.84,45.16 c 0.613,-0.293 1.133,-0.481 1.558,-0.559 l 2.403,-0.402 2.398,0.8 -0.32,-0.839 C 91.641,43.492 91.48,42.906 91.398,42.402 l -0.199,-1.203 -3.597,-2.797 -1.204,-0.403 0.922,-1.757 c 0.719,-1.203 1.414,-1.883 2.078,-2.043 1.067,-0.266 2.137,-0.133 3.204,0.402 l 2.597,2 0.16,-0.043 0.161,-2 c 0.242,-2.773 0.613,-4.863 1.121,-6.277 0.371,-1.121 0.812,-2.586 1.32,-4.403 l -3,-1.839 -1.16,1.761 c 0.078,0.239 0.066,0.465 -0.039,0.68 -0.16,0.48 -0.617,0.719 -1.364,0.719 -0.824,0 -1.371,-0.039 -1.636,-0.117 -0.028,0 -0.617,-0.227 -1.762,-0.68 -1.121,-0.375 -1.84,-0.617 -2.16,-0.723 -0.426,-0.133 -0.641,-0.359 -0.641,-0.68 0,-0.531 0.067,-1.265 0.199,-2.199 0,-0.535 0.801,-0.801 2.403,-0.801 l -4.199,-1.398 1.32,-0.48 c 1.039,-0.348 1.957,-0.602 2.758,-0.762 -2.16,-0.906 -3.692,-1.453 -4.602,-1.641 -0.879,-0.16 -2.023,-0.652 -3.437,-1.476 -0.696,-0.403 -1.309,-0.789 -1.84,-1.16 l -3.121,-0.122 -7.2,9.321 c -0.347,2.531 -0.558,4.734 -0.64,6.597 l 5.961,11.481 c 3.277,-6.16 5.344,-9.414 6.199,-9.758 0.934,-0.402 2.332,-0.469 4.199,-0.199 -0.398,0.531 -0.597,1.133 -0.597,1.797 l 0.199,2.402 1.597,3.398 c -0.664,0.829 -1.16,1.575 -1.476,2.243 l -0.32,0.757 0.597,0.801 C 83.828,41.695 83.426,41.679 83,41.761 c -0.855,0.133 -1.453,0.613 -1.801,1.438 -0.32,0.828 -0.344,1.707 -0.078,2.64 z"
   style="fill:#73777a;fill-rule:evenodd"
   id="path150" />
      <path
   inkscape:connector-curvature="0"
   d="m 87.199,57.601 -2.801,-1.801 -2.796,-0.359 1.199,2.277 c -0.028,-0.183 0.64,0.082 2,0.801 1.465,0.773 2.332,1.133 2.597,1.082 0.536,-0.133 1.204,0 2,0.398 l 1.204,0.403 -1.403,-3.801 z"
   style="fill:#73777a;fill-rule:evenodd"
   id="path152" />
      <path
   inkscape:connector-curvature="0"
   d="m 91.32,74.242 c 0.239,0.476 0.465,1.172 0.68,2.078 L 91.199,72.402 C 90.934,72.16 90.668,71.878 90.398,71.558 89.867,70.945 89.602,70.425 89.602,69.999 v -1 l -2.204,-2.597 -2,-3 -1.476,-3.281 1.797,6.199 0.562,1.082 c 0.453,0.769 0.946,1.316 1.481,1.637 0.504,0.296 0.84,0.96 1,2 l 0.039,1.441 1.039,0.281 c 0.719,0.321 1.215,0.813 1.48,1.481 z"
   style="fill:#73777a;fill-rule:evenodd"
   id="path154" />
      <path
   inkscape:connector-curvature="0"
   d="m 91.199,47.199 1,-2.2 L 89,43.8 c -0.801,0.133 -1.668,0.332 -2.602,0.602 -0.586,0.156 -1.226,0.57 -1.918,1.238 l -0.878,0.961 4,2 0.757,-0.043 c 0.586,-0.023 1,-0.078 1.243,-0.156 0.398,-0.137 0.933,-0.535 1.597,-1.203 z"
   style="fill:#8d9296;fill-rule:evenodd"
   id="path156" />
      <path
   inkscape:connector-curvature="0"
   d="m 93.762,69.402 -0.321,-2.844 c -0.054,-0.637 0.118,-1.637 0.52,-3 l -2.082,-2.559 -4,-1.48 2.402,2.281 c -0.109,0.133 -0.16,0.321 -0.16,0.559 -0.027,0.48 0.211,1 0.719,1.562 0.801,0.879 1.238,1.453 1.32,1.719 0.188,1.332 0.32,2.535 0.399,3.602 0.054,0.664 0.054,1.773 0,3.316 l -0.118,2.16 z"
   style="fill:#8d9296;fill-rule:evenodd"
   id="path158" />
      <path
   inkscape:connector-curvature="0"
   d="M 92.281,52.718 V 51.8 c 0,-0.64 -0.043,-1.133 -0.121,-1.48 h -0.398 c -0.16,0 -0.657,0.215 -1.481,0.64 l -1.203,0.68 1.082,1.078 c 0.719,0.723 1.078,1.254 1.078,1.602 z"
   style="fill:#8d9296;fill-rule:evenodd"
   id="path160" />
      <path
   inkscape:connector-curvature="0"
   d="m 87.879,38.999 1.359,1.2 0.403,1.32 1.558,-0.32 1.762,-2.598 c 0.266,-0.375 0.625,-1.359 1.078,-2.961 -0.906,-0.695 -1.531,-1.133 -1.879,-1.32 l -0.519,-0.281 -0.961,-0.118 -1.84,0.52 c -0.371,0 -0.828,0.453 -1.36,1.359 -0.32,0.559 -0.601,1.094 -0.839,1.602 l -0.243,0.597 0.563,0.282 c 0.398,0.238 0.707,0.48 0.918,0.718 z"
   style="fill:#8d9296;fill-rule:evenodd"
   id="path162" />
      <path
   inkscape:connector-curvature="0"
   d="m 93.961,32.121 1.32,-1.282 0.199,-1 -0.281,-1.718 c -0.398,-0.907 -0.773,-1.309 -1.121,-1.2 -0.211,0.051 -0.57,0.25 -1.078,0.598 l -0.719,0.52 -1.48,1.601 1.597,1.078 c 0.723,0.481 1.243,0.949 1.563,1.403 z"
   style="fill:#83888c;fill-rule:evenodd"
   id="path164" />
      <path
   inkscape:connector-curvature="0"
   d="m 95.961,26.64 0.801,-1 -0.403,-0.519 c -0.586,-0.266 -1.011,-0.36 -1.281,-0.282 -0.156,0.055 -0.266,0.188 -0.316,0.403 v 0.316 z"
   style="fill:#83888c;fill-rule:evenodd"
   id="path166" />
      <path
   inkscape:connector-curvature="0"
   d="m 87.16,27.921 c 0.961,-0.453 1.442,-0.75 1.442,-0.882 0,-0.133 -0.469,-0.399 -1.403,-0.797 -0.371,-0.16 -0.824,-0.215 -1.359,-0.16 l -0.641,0.16 z"
   style="fill:#83888c;fill-rule:evenodd"
   id="path168" />
      <path
   inkscape:connector-curvature="0"
   d="m 89.762,26.441 h 0.316 c 0.617,-0.266 0.684,-0.508 0.203,-0.723 -0.48,-0.238 -0.949,-0.226 -1.402,0.043 -0.078,0.051 0.043,0.184 0.359,0.399 0.16,0.105 0.336,0.199 0.524,0.281 z"
   style="fill:#83888c;fill-rule:evenodd"
   id="path170" />
      <path
   inkscape:connector-curvature="0"
   d="m 92,55.199 c 0.426,1.468 0.762,2.668 1,3.601 v -0.32 c 0.188,-3.387 0.281,-5.199 0.281,-5.441 0,-0.184 0.117,-1.454 0.36,-3.797 0.214,-2.348 0.304,-3.883 0.281,-4.602 L 94,43.359 c 0.105,-1.094 0.32,-2.211 0.641,-3.36 0.32,-1.199 0.547,-2.214 0.679,-3.039 0,-0.16 0.067,-0.961 0.2,-2.402 0.242,-2.773 0.613,-4.863 1.121,-6.277 0.371,-1.121 0.812,-2.586 1.32,-4.403 l -1.242,-0.757 -0.758,3.519 c -0.32,0.453 -0.641,0.934 -0.961,1.442 -0.668,0.984 -1,1.558 -1,1.718 -0.32,2.133 -0.348,3.934 -0.078,5.399 0.156,0.906 0.223,1.496 0.199,1.761 L 94,37.082 l -2.078,3.117 0.398,1.082 0.2,5.121 -0.239,6.316 c 0,0.403 -0.082,0.895 -0.242,1.481 -0.105,0.402 -0.117,0.734 -0.039,1 z"
   style="fill:#979ca1;fill-rule:evenodd"
   id="path172" />
      <path
   inkscape:connector-curvature="0"
   d="m 83.68,23.359 1.601,-0.117 -0.203,-0.481 c -0.133,-0.347 -0.199,-0.629 -0.199,-0.84 0,-0.375 -0.16,-0.734 -0.481,-1.082 h -1.519 c -0.16,0 -0.305,0.067 -0.438,0.2 -0.136,0.136 -0.16,0.269 -0.082,0.402 0.133,0.183 0.575,0.824 1.321,1.918 z"
   style="fill:#83888c;fill-rule:evenodd"
   id="path174" />
      <path
   inkscape:connector-curvature="0"
   d="m 85.199,28.718 -2.597,-1.879 c -0.11,-0.054 -0.27,-0.054 -0.481,0 -0.242,0.055 -0.414,0.149 -0.519,0.282 -0.082,0.105 0.117,0.347 0.597,0.718 0.242,0.188 0.496,0.36 0.762,0.52 z"
   style="fill:#83888c;fill-rule:evenodd"
   id="path176" />
      <path
   inkscape:connector-curvature="0"
   d="m 81.16,19.441 0.442,-1.199 -1.204,-1.121 c -0.023,-0.133 -0.332,-0.133 -0.918,0 z"
   style="fill:#83888c;fill-rule:evenodd"
   id="path178" />
      <path
   inkscape:connector-curvature="0"
   d="m 77.801,15.601 c 0,-0.187 0.144,-0.359 0.437,-0.519 0.27,-0.137 0.496,-0.204 0.684,-0.204 0.105,0 0.758,0.231 1.957,0.68 0.586,0.242 1.16,0.481 1.723,0.723 l 0.519,0.48 c 0.453,0.348 1.012,0.52 1.68,0.52 1.066,0 2.133,0.133 3.199,0.398 l 1.801,0.922 2.199,2.277 4.719,2.243 c -2.344,-1.68 -3.68,-2.653 -4,-2.922 L 92.199,19.8 90.121,17.48 c -2.48,-0.852 -3.988,-1.348 -4.519,-1.481 l -2.204,-0.8 -3.597,-1.918 -3.082,-0.403 -1.039,0.082 -0.078,1.52 1.597,4.519 c 0.403,-2 0.602,-3.132 0.602,-3.398 z"
   style="fill:#65686b;fill-rule:evenodd"
   id="path180" />
      <path
   inkscape:connector-curvature="0"
   d="m 69.32,78.48 c 0.375,-0.371 0.614,-0.68 0.719,-0.922 l 0.563,-1.598 c 0.476,-1.121 1.039,-1.851 1.679,-2.199 0.934,-0.508 1.465,-1.203 1.598,-2.082 0.082,-0.691 0.242,-1.051 0.48,-1.078 0.426,-0.027 0.719,-0.707 0.879,-2.043 0.082,-0.691 0.11,-1.371 0.082,-2.039 l 4.602,-3.277 c 3.012,-2.481 4.465,-4.442 4.359,-5.883 l -0.32,-3.52 -0.199,-0.519 c -0.11,-0.613 -0.137,-1.602 -0.082,-2.961 0.082,-2.078 0.105,-3.238 0.082,-3.481 -0.028,-0.796 -0.242,-1.613 -0.641,-2.437 -0.32,-0.695 -0.652,-1.602 -1,-2.723 -0.453,-1.492 -0.789,-2.531 -1,-3.117 l -2.48,-6.602 0.121,-2.878 c 0.105,-2.133 0.277,-3.707 0.519,-4.719 0.184,-0.828 0.465,-1.281 0.84,-1.363 0.106,-0.051 0.012,-0.426 -0.281,-1.118 -0.348,-0.8 -0.84,-1.734 -1.481,-2.8 -0.746,-1.149 -1.187,-1.868 -1.32,-2.161 -0.453,-0.878 -0.906,-2.214 -1.359,-4 l -0.801,0.321 c -2.371,-0.055 -4.172,-0.039 -5.399,0.039 -0.054,0 -0.839,0.148 -2.359,0.441 -0.883,0.184 -1.828,0.145 -2.84,-0.121 -0.933,-0.238 -2.254,-0.762 -3.961,-1.558 -1.519,-0.723 -2.375,-1.083 -2.558,-1.083 -0.137,-0.027 -1.59,0.04 -4.364,0.2 -1.652,0.082 -2.984,0.254 -4,0.519 -0.691,0.242 -1.144,0.375 -1.359,0.403 -0.184,0 -0.68,0.253 -1.48,0.757 -0.774,0.481 -1.305,0.735 -1.598,0.762 -0.266,0 -0.707,0.106 -1.32,0.32 -0.614,0.215 -1.067,0.332 -1.36,0.36 h 0.438 l -1.278,0.082 c -0.507,0.023 -1.574,0.051 -3.203,0.078 -0.851,0 -1.718,0.078 -2.597,0.238 -1.336,0.242 -2.094,0.387 -2.282,0.442 -0.398,0.105 -0.734,0.293 -1,0.558 L 28.68,18.64 c 2.215,5.094 3.332,8.266 3.359,9.52 0.215,3.226 0.32,5.105 0.32,5.64 l 0.039,0.84 c -0.586,4 -0.773,7.52 -0.558,10.559 0.133,1.84 0.558,4.722 1.281,8.64 0.774,3.973 1.238,6.453 1.399,7.442 0.48,2.293 0.8,4.066 0.96,5.32 L 36,71.16 c 1.227,4.453 2,7.386 2.32,8.8 0.293,1.414 0.465,2.934 0.52,4.559 l -0.442,8.121 7.801,-3.922 c 1.067,-0.558 2.547,-0.945 4.442,-1.16 2.425,-0.238 4.121,-0.492 5.078,-0.758 3.441,-0.933 5.84,-1.972 7.203,-3.121 0.051,-0.051 0.238,-0.492 0.558,-1.32 0.266,-0.586 1.094,-1.184 2.481,-1.801 1.437,-0.637 2.559,-1.332 3.359,-2.078 z"
   style="fill:#c9cacc;fill-rule:evenodd"
   id="path182" />
      <path
   inkscape:connector-curvature="0"
   d="M 48.84,87.839 C 49.855,85.679 50.027,84.335 49.359,83.8 48.934,83.453 47.961,83.039 46.441,82.558 45,82.109 44.012,81.585 43.48,80.999 42.52,79.906 41.695,79.054 41,78.441 39.855,77.402 38.586,76.468 37.199,75.64 c 0.723,2.719 1.094,4.16 1.121,4.32 0.293,1.414 0.465,2.934 0.52,4.559 l -0.442,8.121 7.801,-3.922 c 0.746,-0.398 1.629,-0.691 2.641,-0.879 z"
   style="fill:#d7dce0;fill-rule:evenodd"
   id="path184" />
      <path
   inkscape:connector-curvature="0"
   d="m 50.121,81.601 0.598,-2.723 -2,-1.199 C 48.293,77.386 47.855,77.082 47.398,76.761 46.52,76.093 46.055,75.707 46,75.601 l -0.68,-2 -0.398,-2.801 1.598,-1.398 c 1.199,-1.067 2.093,-1.934 2.679,-2.602 1.735,-2 3.84,-3.668 6.321,-5 1.121,-0.64 1.8,-1.093 2.039,-1.359 0.136,-0.16 0.148,-0.242 0.043,-0.242 l -0.68,-0.321 -4.32,-1.597 c -1.735,0.347 -2.934,0.679 -3.602,1 -0.426,0.211 -0.801,0.492 -1.121,0.84 L 45,63.601 c -2.133,2.32 -3.359,3.586 -3.68,3.801 -0.215,0.105 -0.425,0.277 -0.64,0.519 l -0.282,0.278 -2,4.281 0.922,1.039 c 0.801,0.855 1.692,1.613 2.68,2.281 0.906,0.586 1.641,1.188 2.199,1.801 0.668,0.664 1.199,1.16 1.602,1.481 1.066,0.796 2.504,1.636 4.32,2.519 z"
   style="fill:#d7dce0;fill-rule:evenodd"
   id="path186" />
      <path
   inkscape:connector-curvature="0"
   d="m 58.719,72.082 3.082,-2.403 c 0.265,-0.187 0.801,-0.32 1.597,-0.398 L 63.719,67.8 61.32,66.999 c -0.215,-0.078 -1.922,0.387 -5.121,1.403 l -1.597,4 1.476,-0.043 c 1.094,-0.051 1.977,-0.145 2.641,-0.277 z"
   style="fill:#d7dce0;fill-rule:evenodd"
   id="path188" />
      <path
   inkscape:connector-curvature="0"
   d="m 56,81.281 c 0.215,-0.055 0.48,-0.188 0.801,-0.403 1.332,-1.199 1.933,-2.093 1.801,-2.679 -0.137,-0.614 -0.067,-1.278 0.199,-2 L 60.52,74.48 c -1.415,-0.398 -2.415,-0.398 -3,0 -0.375,0.238 -0.852,0.707 -1.442,1.398 L 55.32,76.8 c -0.668,1.199 -0.972,2 -0.922,2.399 0.055,0.242 0.043,0.695 -0.039,1.359 l -0.16,0.922 0.121,0.801 z"
   style="fill:#d7dce0;fill-rule:evenodd"
   id="path190" />
      <path
   inkscape:connector-curvature="0"
   d="m 66.398,69.679 1,1.32 0.801,-1.519 c 0.348,-0.934 0.414,-1.426 0.199,-1.481 -0.132,-0.054 -0.093,-0.48 0.122,-1.281 0.16,-0.636 0.32,-1.144 0.48,-1.519 0.133,-0.348 0.172,-0.481 0.121,-0.399 h -2.199 l -0.801,2.399 c -0.133,0.32 -0.121,0.828 0.039,1.519 z"
   style="fill:#d7dce0;fill-rule:evenodd"
   id="path192" />
      <path
   inkscape:connector-curvature="0"
   d="m 70.281,64.199 c 0.692,0.269 1.199,0.402 1.52,0.402 0.344,0 0.574,-0.066 0.679,-0.199 0.079,-0.082 0.188,-0.215 0.321,-0.403 l 2,-1.597 -2.403,-0.922 c -0.531,0.48 -1.332,0.855 -2.398,1.121 -0.668,0.16 -0.973,0.414 -0.922,0.758 L 69.32,63.8 Z"
   style="fill:#d7dce0;fill-rule:evenodd"
   id="path194" />
      <path
   inkscape:connector-curvature="0"
   d="m 77.801,54.601 c 1.277,0.719 2.011,0.918 2.199,0.598 l 3.398,-1 -0.199,-1.2 C 82.934,51.402 82.641,50.535 82.32,50.402 80.266,49.601 78.828,49.16 78,49.082 L 74.801,48.999 74,49.281 c -1.332,0.48 -2.094,0.785 -2.281,0.918 -0.133,0.082 -0.371,0.453 -0.719,1.121 l -0.48,0.961 3.679,0.32 c 0.453,0.078 0.961,0.293 1.52,0.641 0.347,0.238 1.043,0.691 2.082,1.359 z"
   style="fill:#d7dce0;fill-rule:evenodd"
   id="path196" />
      <path
   inkscape:connector-curvature="0"
   d="m 72.602,39.402 c -0.188,0.023 -0.575,0.012 -1.161,-0.043 l -0.839,-0.078 1,2.199 c 0.21,0.32 0.679,0.707 1.398,1.16 0.348,0.215 0.68,0.399 1,0.559 l 1.121,-0.2 L 76,42.64 c 0.641,-0.293 1.078,-0.547 1.32,-0.762 0.215,-0.16 0.586,-0.304 1.121,-0.437 0.586,-0.133 1.012,-0.281 1.278,-0.442 0.535,-0.347 0.426,-0.546 -0.321,-0.597 -1.386,-0.535 -2.41,-0.91 -3.078,-1.121 -0.425,-0.133 -1.105,-0.16 -2.039,-0.082 -0.722,0.054 -1.281,0.121 -1.679,0.203 z"
   style="fill:#d7dce0;fill-rule:evenodd"
   id="path198" />
      <path
   inkscape:connector-curvature="0"
   d="m 53.922,41.8 c 0.398,0 1.09,-0.308 2.078,-0.922 l 2.801,-2.277 -1.879,0.277 -3.801,1.602 C 52.055,40.027 50.988,39.601 49.922,39.199 49.254,38.96 48.785,38.652 48.52,38.281 48.387,38.093 48.32,37.933 48.32,37.8 l -0.601,0.879 1.082,1 0.437,0.281 c 0.348,0.188 0.735,0.293 1.16,0.321 0.668,0.078 1.11,0.613 1.321,1.597 z"
   style="fill:#d7dce0;fill-rule:evenodd"
   id="path200" />
      <path
   inkscape:connector-curvature="0"
   d="m 47.801,68.48 1.758,-1.441 c 1.203,-1.067 1.882,-1.786 2.043,-2.161 L 52,63.999 57.719,60.679 58,60.082 56.32,59.601 c -0.586,-0.16 -1.414,-0.496 -2.48,-1 l -1.442,-0.723 c -0.586,0.348 -1.253,0.614 -2,0.801 -0.453,0.133 -1.105,0.387 -1.957,0.762 L 47.32,59.999 44,63.878 c -1.066,0.934 -1.762,1.641 -2.078,2.121 l -1.602,2.2 1.602,0.883 c 0.586,0.343 2.543,0.144 5.879,-0.602 z"
   style="fill:#c1c2c7;fill-rule:evenodd"
   id="path202" />
      <path
   inkscape:connector-curvature="0"
   d="M 32.359,15.718 28.68,18.64 c 2.187,5.067 3.308,8.238 3.359,9.52 0.988,-1.36 1.906,-2.414 2.762,-3.161 1.066,-0.933 2.133,-1.8 3.199,-2.597 l 2.801,-0.403 1.801,-0.8 0.796,-4.399 -0.558,-0.801 c -0.453,-0.613 -0.918,-1.148 -1.399,-1.597 -0.507,0.023 -1.574,0.051 -3.203,0.078 -0.851,0 -1.718,0.078 -2.597,0.238 -1.336,0.242 -2.094,0.387 -2.282,0.442 -0.398,0.105 -0.734,0.293 -1,0.558 z"
   style="fill:#a4a4a8;fill-rule:evenodd"
   id="path204" />
      <path
   inkscape:connector-curvature="0"
   d="m 67.602,21.601 1.957,2.32 c -0.059,-0.093 -0.02,-0.187 0.121,-0.281 0.242,-0.16 0.812,-0.238 1.718,-0.238 h 2.403 l 2.16,-0.32 c 1.68,-0.215 3.078,-0.364 4.199,-0.442 l -0.32,-0.719 c -0.348,-0.8 -0.84,-1.734 -1.481,-2.8 -0.746,-1.149 -1.187,-1.868 -1.32,-2.161 -0.453,-0.878 -0.906,-2.214 -1.359,-4 l -0.801,0.321 c -2.371,-0.055 -4.172,-0.039 -5.399,0.039 -0.054,0 -0.839,0.148 -2.359,0.441 -0.883,0.184 -1.828,0.145 -2.84,-0.121 -0.933,-0.238 -2.254,-0.762 -3.961,-1.558 -1.519,-0.723 -2.375,-1.083 -2.558,-1.083 l -0.043,0.04 c 0.375,0.32 0.707,0.64 1,0.96 L 59,12.402 c 0.133,0.933 0.266,2.398 0.398,4.398 0.082,1.254 0.309,2.465 0.68,3.641 l 0.524,1.359 0.957,-0.199 c 0.8,-0.133 1.613,-0.199 2.441,-0.199 1.332,0 2.535,0.066 3.602,0.199 z"
   style="fill:#acadb1;fill-rule:evenodd"
   id="path206" />
      <path
   inkscape:connector-curvature="0"
   d="m 67,77.199 c 0,0.242 -0.293,0.652 -0.879,1.242 L 63.398,80.8 63.199,79.199 c 0,-0.399 -0.398,-1.399 -1.199,-3 l -1.398,-1.2 -1.801,1.2 -0.199,0.601 c -0.481,1.465 -0.95,2.535 -1.403,3.199 -0.32,0.508 -0.453,1.188 -0.398,2.04 L 57,83.199 55.398,85.8 c -0.32,0.508 -0.851,0.973 -1.597,1.399 0.691,-0.078 1.332,-0.211 1.918,-0.399 3.441,-0.933 5.84,-1.972 7.203,-3.121 0.051,-0.051 0.238,-0.492 0.558,-1.32 0.266,-0.586 1.094,-1.184 2.481,-1.801 1.437,-0.637 2.559,-1.332 3.359,-2.078 0.375,-0.371 0.614,-0.68 0.719,-0.922 l 0.563,-1.598 c 0.476,-1.121 1.039,-1.851 1.679,-2.199 0.934,-0.508 1.465,-1.203 1.598,-2.082 0.082,-0.691 0.242,-1.051 0.48,-1.078 0.426,-0.027 0.719,-0.707 0.879,-2.043 0.082,-0.691 0.11,-1.371 0.082,-2.039 l 4.602,-3.277 c 3.012,-2.481 4.465,-4.442 4.359,-5.883 l -0.32,-3.52 -0.199,-0.519 c -0.11,-0.613 -0.137,-1.602 -0.082,-2.961 0.082,-2.078 0.105,-3.238 0.082,-3.481 -0.028,-0.796 -0.242,-1.613 -0.641,-2.437 -0.266,-0.563 -0.652,-1.629 -1.16,-3.199 -0.508,0.613 -0.762,1.265 -0.762,1.957 0,0.668 -0.133,1.269 -0.398,1.8 L 80.398,45.601 78.801,45.8 78,46.601 c -0.32,0.32 -1.121,0.785 -2.398,1.398 l -1.801,0.801 4.398,1 c 0.879,0.188 1.586,0.399 2.121,0.641 0.481,0.211 0.973,0.531 1.481,0.961 0.664,0.531 1.133,1.066 1.398,1.597 l -0.801,1.2 c -1.199,0.402 -2.132,1 -2.796,1.8 -0.457,0.641 -0.774,1.04 -0.961,1.2 -0.215,0.215 -0.629,0.414 -1.243,0.601 -0.586,0.16 -1.332,0.442 -2.238,0.84 l -1.16,0.559 0.801,1.203 v 2 l -1,1.398 -1.602,1 C 70.602,64.402 69.535,64.535 69,65.199 c -0.32,0.402 -0.492,0.84 -0.52,1.32 0.028,0.586 0,1.082 -0.082,1.48 -0.078,0.508 -0.265,1.161 -0.558,1.961 l -0.442,1.039 z"
   style="fill:#b5b6b8;fill-rule:evenodd"
   id="path208" />
      <path
   inkscape:connector-curvature="0"
   d="m 34,41.199 c 1.332,-1.332 3.266,-2.465 5.801,-3.399 l 2.597,-2.601 -3.597,-1 C 38.215,34.039 37.773,33.761 37.48,33.359 37.32,33.148 37.227,32.96 37.199,32.8 l 1,-2.398 2.039,-0.801 C 41.922,29.066 43.508,28.8 45,28.8 h 7.762 c -0.176,-0.004 -0.364,-0.031 -0.563,-0.082 -0.398,-0.105 -0.597,-0.277 -0.597,-0.519 0,-0.399 0.664,-1.266 2,-2.598 -1.735,0.664 -3.668,1.066 -5.801,1.199 -1.336,0.078 -3,0.039 -5,-0.121 l -2.602,-0.277 c -0.398,-0.137 -0.879,-0.121 -1.437,0.039 -1.094,0.293 -2.016,1.144 -2.762,2.558 -1.492,2.801 -2.695,4.602 -3.602,5.403 v 0.238 c -0.453,3.067 -0.664,6 -0.636,8.801 z"
   style="fill:#b2b3b5;fill-rule:evenodd"
   id="path210" />
      <path
   inkscape:connector-curvature="0"
   d="m 40.398,68.199 1.641,-1.239 c 1.227,-1.066 2.215,-2.187 2.961,-3.359 1.414,-2.215 2.613,-3.48 3.602,-3.801 l 3.597,-1.398 3.403,0.797 2,1 V 59.16 C 57.465,58.414 57.066,57.828 56.398,57.402 55.734,56.972 54.934,56.281 54,55.32 l -1.16,-1.281 c -0.211,0.132 -0.824,0.453 -1.84,0.96 -0.988,0.508 -2.012,1.161 -3.078,1.961 l -1.32,1.039 c 0,0.536 -0.27,1.266 -0.801,2.2 -0.321,0.586 -1.215,1.496 -2.68,2.722 L 41,64.601 Z"
   style="fill:#b2b3b5;fill-rule:evenodd"
   id="path212" />
      <path
   inkscape:connector-curvature="0"
   d="m 35.641,14.718 c -1.336,0.242 -2.094,0.387 -2.282,0.442 -0.398,0.105 -0.734,0.293 -1,0.558 2.961,0.188 4.973,0.481 6.039,0.883 1.071,0.398 2.067,1.066 3,2 l 1.204,2.598 1.796,0.402 1.403,-1.602 0.078,-1.96 c 0.109,-1.332 0.281,-2.079 0.519,-2.239 0.27,-0.187 0.375,-1.199 0.321,-3.039 -0.907,0.559 -1.492,0.852 -1.758,0.879 -0.266,0 -0.707,0.106 -1.32,0.32 -0.614,0.215 -1.067,0.332 -1.36,0.36 h 0.438 l -1.278,0.082 c -0.507,0.023 -1.574,0.051 -3.203,0.078 -0.851,0 -1.718,0.078 -2.597,0.238 z"
   style="fill:#acadb1;fill-rule:evenodd"
   id="path214" />
      <path
   inkscape:connector-curvature="0"
   d="m 64.922,54.199 c 1.465,-0.399 2.586,-0.758 3.359,-1.078 1.25,-0.536 2.051,-1.067 2.399,-1.602 L 66.398,50.16 c -2.476,0.535 -4.425,0.8 -5.839,0.8 -0.879,0 -1.946,-0.039 -3.2,-0.121 L 55.762,50.718 52.559,49.121 50.16,47.519 c -1.601,-1.066 -2.762,-2.051 -3.48,-2.961 l 1.879,5.602 c 0.48,0.48 1.027,1.015 1.64,1.601 1.176,1.117 2.039,1.863 2.602,2.238 0.906,0.559 2.426,2.04 4.558,4.442 0.668,0.105 1.895,-0.254 3.68,-1.082 0.883,-0.426 1.695,-0.867 2.441,-1.32 l -0.519,-1.321 z"
   style="fill:#e3e4e6;fill-rule:evenodd"
   id="path216" />
      <path
   inkscape:connector-curvature="0"
   d="m 41.359,50.96 c -2.132,0.559 -3.464,0.747 -4,0.559 l -0.8,-0.277 -0.68,-1.321 C 35.375,48.988 35.066,48.359 34.961,48.039 L 34.68,47.242 c 0,0.718 0.093,1.691 0.281,2.918 0.105,0.773 0.492,1.64 1.16,2.601 l 0.957,1.16 L 38,53.718 c 0.719,-0.183 1.305,-0.383 1.762,-0.597 l 1.039,-0.563 h 2.679 l 1.321,-1.598 c -0.481,0.215 -0.989,0.387 -1.52,0.52 -1.066,0.215 -1.707,0.039 -1.922,-0.52 z"
   style="fill:#e3e4e6;fill-rule:evenodd"
   id="path218" />
      <path
   inkscape:connector-curvature="0"
   d="m 46.398,49.64 c 0.536,-0.348 1.254,-0.172 2.161,0.52 L 48.281,48.32 46.961,46.16 46.68,44.558 V 41.359 L 46.602,40.48 C 46.52,39.628 46.375,38.585 46.16,37.359 45.992,36.39 45.91,35.71 45.922,35.32 l -1.641,2.601 -1.601,3.438 c 0,1.789 -0.094,3.387 -0.282,4.801 -0.105,0.906 -0.304,1.972 -0.597,3.199 l -0.442,1.601 1.039,0.801 2.403,-0.801 0.519,-0.48 c 0.399,-0.348 0.758,-0.629 1.078,-0.84 z"
   style="fill:#b5b6b8;fill-rule:evenodd"
   id="path220" />
      <path
   inkscape:connector-curvature="0"
   d="m 73.801,48.8 1.961,-4.242 -3.203,-1.84 -1.36,-2.679 L 72,34.718 70.961,33.921 c -0.453,-0.347 -0.906,-0.855 -1.359,-1.519 l -0.524,-0.883 -1.316,-1.598 1.636,0.078 c 1.309,0.106 2.508,0.309 3.602,0.602 1.094,0.266 1.855,0.344 2.281,0.238 0.211,-0.054 0.321,-0.132 0.321,-0.238 l 1.597,-1.199 c -0.238,-0.375 -0.574,-0.735 -1,-1.082 -0.824,-0.719 -1.691,-1.078 -2.597,-1.078 -0.883,0 -1.895,0.039 -3.043,0.117 l -1.481,0.16 -0.519,-0.801 c -0.348,-0.531 -1.68,-1.863 -4,-4 -1.254,0.883 -2.321,1.684 -3.2,2.403 -0.558,0.453 -1.304,0.894 -2.238,1.32 l -1.242,0.519 2.922,2.68 1.359,2.399 2.918,4 c 0.32,0.535 0.641,1.214 0.961,2.043 0.668,1.652 1.055,3.199 1.16,4.636 0.106,1.442 0.016,3.121 -0.277,5.043 l -0.524,2.399 4.282,1.359 z"
   style="fill:#b5b6b8;fill-rule:evenodd"
   id="path222" />
      <path
   inkscape:connector-curvature="0"
   d="m 80,73.402 0.762,-0.043 c 0.531,-0.024 0.906,-0.067 1.117,-0.117 0.586,-0.137 1.652,-0.575 3.199,-1.321 0.723,-0.347 1.481,-0.656 2.281,-0.922 l -0.961,-1.078 h -3.839 l -0.797,0.918 c -1.067,0.801 -1.789,1.387 -2.16,1.762 -0.215,0.211 -0.481,0.652 -0.801,1.32 l -0.403,0.918 z"
   style="fill:#d3d4d6;fill-rule:evenodd"
   id="path224" />
      <path
   inkscape:connector-curvature="0"
   d="m 75.32,66.519 3.36,-0.32 c 1.148,-0.106 2.175,-0.239 3.082,-0.399 l 1.718,0.641 0.079,-0.16 C 83.641,66.199 83.785,66.214 84,66.32 l 1.762,0.801 -0.082,-0.961 c -0.106,-0.746 -0.305,-1.453 -0.602,-2.121 -0.453,-1.067 -0.945,-2.747 -1.476,-5.04 -0.696,1.067 -1.309,1.774 -1.84,2.122 -1.254,0.984 -2.11,1.652 -2.563,2 z"
   style="fill:#d3d4d6;fill-rule:evenodd"
   id="path226" />
      <path
   inkscape:connector-curvature="0"
   d="m 64.879,79.519 c 0.32,-0.266 0.601,-0.437 0.84,-0.52 0.402,-0.132 0.828,-0.734 1.281,-1.8 l -0.078,-0.797 c -0.348,-0.27 -0.75,-0.375 -1.203,-0.32 -0.293,0.05 -0.641,0.066 -1.039,0.039 l -0.481,-0.039 1.602,-1.801 -0.36,-0.68 c -0.269,-0.562 -0.507,-1.133 -0.722,-1.723 -0.344,-0.933 -0.785,-1.796 -1.321,-2.597 l -1.597,0.398 c -0.801,0.215 -1.469,0.613 -2,1.199 -0.321,0.375 -0.668,0.696 -1.039,0.961 l -0.442,0.243 1.801,2.32 0.359,0.316 c 0.266,0.27 0.481,0.524 0.641,0.762 l 1.277,1.719 c 0.27,0.402 0.602,1.601 1,3.601 l 1.122,-0.922 z"
   style="fill:#e3e4e6;fill-rule:evenodd"
   id="path228" />
      <path
   inkscape:connector-curvature="0"
   d="m 50.121,81.601 0.641,-1.402 c 0.133,-0.453 0.304,-0.719 0.519,-0.797 l -3.722,-0.762 -2,-1.398 c -0.184,-0.27 -0.36,-0.414 -0.52,-0.442 l -3.039,-1 1.281,1 c 0.907,0.719 1.504,1.254 1.797,1.602 0.481,0.531 0.867,1.012 1.16,1.437 l 2.121,0.879 c 0.536,0.215 1.121,0.508 1.762,0.883 z"
   style="fill:#e3e4e6;fill-rule:evenodd"
   id="path230" />
      <path
   inkscape:connector-curvature="0"
   d="m 67.359,57.121 c -0.558,0.16 -1.171,0.281 -1.839,0.359 l -0.84,0.039 0.558,0.402 c 0.348,0.266 1.094,0.758 2.242,1.481 L 68.84,58.8 c 0.348,-0.133 1.015,-0.293 2,-0.48 l 0.398,-0.801 0.481,-0.117 c 0.375,-0.055 0.75,-0.082 1.121,-0.082 h 2.238 l -0.637,-0.602 c -0.8,0 -1.652,-0.039 -2.562,-0.117 -0.559,-0.082 -1.117,-0.109 -1.68,-0.082 l -0.719,0.082 c -0.535,0.078 -1.242,0.25 -2.121,0.52 z"
   style="fill:#e3e4e6;fill-rule:evenodd"
   id="path232" />
      <path
   inkscape:connector-curvature="0"
   d="m 52.32,75.601 0.602,-0.68 c 0.476,-0.535 0.906,-1.082 1.277,-1.64 0.613,-0.856 0.746,-1.149 0.403,-0.879 -0.536,-1.867 -1.204,-3.043 -2,-3.524 -0.508,-0.293 -0.868,-0.636 -1.082,-1.039 l -0.2,-0.558 c -0.933,0.746 -1.84,1.121 -2.718,1.121 -0.536,0 -1.094,0.199 -1.68,0.597 l -2,1.801 h 2.68 l 0.878,0.399 c 0.665,0.293 1.215,0.586 1.641,0.883 0.664,0.476 1.399,1.652 2.199,3.519 z"
   style="fill:#b2b3b5;fill-rule:evenodd"
   id="path234" />
      <path
   inkscape:connector-curvature="0"
   d="m 65.922,61.679 1.199,-1.597 c 0.399,-0.59 0.52,-0.817 0.359,-0.68 l -2.8,-1.883 -1.2,-1.48 c -0.988,0.562 -2.175,1.082 -3.558,1.562 l -2.563,0.84 0.243,1.758 0.519,1.281 c 0,0.879 -0.109,1.785 -0.32,2.719 -0.106,0.586 -0.414,1.468 -0.922,2.64 l -0.68,1.563 2,-0.922 1.52,-0.398 1.601,-0.083 1.801,-2.199 c 0.266,-0.265 0.625,-0.465 1.078,-0.601 -0.265,-0.266 -0.597,-0.664 -1,-1.2 -0.238,-0.347 -0.277,-0.734 -0.121,-1.16 0.082,-0.215 0.188,-0.398 0.32,-0.558 l 0.364,0.398 c 0.316,0.266 0.597,0.442 0.84,0.52 0.398,0.136 0.839,-0.039 1.32,-0.52 z"
   style="fill:#b2b3b5;fill-rule:evenodd"
   id="path236" />
      <path
   inkscape:connector-curvature="0"
   d="m 72.398,57.601 -1.16,-0.082 -0.398,0.801 0.879,0.359 v 1 c 0,0.242 0.121,0.613 0.359,1.121 l 0.32,0.68 2.723,1.398 0.199,-1 -0.121,-1.398 C 75.145,59.945 74.855,59.679 74.32,59.679 L 74,59.199 v -0.36 c 0.055,-0.32 0.227,-0.597 0.52,-0.84 l 0.679,-0.597 -0.48,-0.121 c -0.211,-0.028 -0.664,0.011 -1.36,0.121 z"
   style="fill:#b2b3b5;fill-rule:evenodd"
   id="path238" />
      <path
   inkscape:connector-curvature="0"
   d="m 35.602,70.039 0.796,-1.161 c 0.563,-0.879 0.922,-1.652 1.082,-2.32 l 0.399,-1.598 1.723,-2.519 C 39.785,62.359 39.387,61.96 38.398,61.242 37.441,60.519 36.465,59.945 35.48,59.519 L 33.879,58.96 c 0.453,1.52 0.723,2.719 0.801,3.598 l 0.281,2.402 0.519,1.641 z"
   style="fill:#b2b3b5;fill-rule:evenodd"
   id="path240" />
      <path
   inkscape:connector-curvature="0"
   d="m 75.32,16.402 1.078,1.797 c -0.105,0.187 -0.16,0.386 -0.16,0.601 -0.05,0.453 0.137,0.758 0.563,0.918 0.426,0.16 0.664,0.11 0.719,-0.16 0.054,-0.133 0.054,-0.277 0,-0.437 l -1.84,-6.403 -0.801,0.321 c -2.371,-0.051 -4.172,-0.04 -5.399,0.043 l -2.359,0.437 c -0.883,0.16 -1.828,0.105 -2.84,-0.16 -0.906,-0.238 -2.226,-0.758 -3.961,-1.559 -1.519,-0.695 -2.375,-1.039 -2.558,-1.039 -0.137,-0.054 -1.59,0 -4.364,0.16 -1.652,0.106 -2.984,0.293 -4,0.559 -0.691,0.238 -1.144,0.375 -1.359,0.398 -0.211,0 -0.707,0.254 -1.48,0.762 -0.774,0.481 -1.305,0.734 -1.598,0.762 -0.266,0 -0.707,0.105 -1.32,0.316 -0.504,0.176 -0.899,0.289 -1.18,0.34 l -1.02,0.063 c -2.347,-0.028 -4.281,0.093 -5.8,0.359 -1.336,0.238 -2.094,0.387 -2.282,0.441 -0.398,0.106 -0.734,0.293 -1,0.559 l -3.679,2.879 0.16,0.402 c 1.734,-0.746 2.894,-1.32 3.48,-1.722 0.668,-0.481 1.36,-0.786 2.078,-0.918 l 0.68,-0.321 c 0.695,-0.215 1.707,-0.332 3.043,-0.359 2.133,-0.082 4.16,-0.055 6.078,0.078 h 2.199 l 0.524,-1.879 c 0.051,-0.187 0.504,-0.414 1.359,-0.68 0.852,-0.242 1.758,-0.414 2.719,-0.519 1.281,-0.133 2.613,-0.133 4,0 l 1.922,0.598 1.277,-0.118 1.199,3.598 0.68,-1.199 c 0.481,-0.828 0.828,-1.321 1.043,-1.481 0.32,-0.265 1.051,-0.371 2.199,-0.32 l 2.481,0.563 3.918,-0.204 3.883,0.403 z"
   style="fill:#73777a;fill-rule:evenodd"
   id="path242" />
      <path
   inkscape:connector-curvature="0"
   d="m 78.641,31.718 0.121,-2.879 c 0.105,-2.105 0.277,-3.679 0.519,-4.718 0.184,-0.829 0.465,-1.282 0.84,-1.36 0.106,-0.027 0.012,-0.387 -0.281,-1.082 C 79.492,20.878 79,19.945 78.359,18.878 77.613,17.707 77.172,16.972 77.039,16.679 76.586,15.828 76.133,14.507 75.68,12.718 l -0.801,0.321 c -2.371,-0.051 -4.172,-0.04 -5.399,0.043 -0.292,0 -1.039,0.132 -2.242,0.398 -0.824,0.16 -1.652,0.16 -2.476,0 l 1.636,1.641 1.282,0.078 c 1.039,0.082 2.015,0.121 2.922,0.121 1.464,0 2.199,0.133 2.199,0.398 0.801,0.137 1.398,0.535 1.801,1.203 0.398,0.664 1.597,2.399 3.597,5.2 -0.664,0.8 -1,1.464 -1,2 v 5 l -1.597,1.199 -8.204,0.398 6,0.801 h 2.204 c 0.586,0 1.066,0.227 1.437,0.68 0.188,0.242 0.309,0.48 0.359,0.722 0.668,0.934 1.204,1.934 1.602,3 0.238,0.637 1.027,1.692 2.359,3.161 z"
   style="fill:#e3e4e6;fill-rule:evenodd"
   id="path244" />
      <g
   id="g246">
        <g
   id="g248">
          <g
   id="g254">
            <path
   inkscape:connector-curvature="0"
   d="m 88.16,51.921 c -0.027,-0.668 -0.187,-1.226 -0.48,-1.679 -0.266,-0.457 -0.575,-0.668 -0.918,-0.641 -0.348,0.023 -0.629,0.277 -0.84,0.758 -0.188,0.48 -0.27,1.055 -0.242,1.723 0.054,0.664 0.215,1.226 0.48,1.679 0.266,0.453 0.574,0.664 0.918,0.641 0.348,-0.055 0.629,-0.309 0.844,-0.762 0.211,-0.48 0.293,-1.055 0.238,-1.719 z"
   style="fill:url(#linearGradient256);fill-rule:evenodd"
   id="path262" />
          </g>
        </g>
      </g>
      <g
   id="g264">
        <g
   id="g266">
          <g
   id="g272">
            <path
   inkscape:connector-curvature="0"
   d="M 82.762,33.242 C 82.652,32.734 82.48,32.32 82.238,31.999 82,31.679 81.746,31.546 81.48,31.601 c -0.265,0.023 -0.468,0.238 -0.601,0.641 -0.133,0.371 -0.16,0.812 -0.078,1.316 0.105,0.508 0.277,0.922 0.519,1.242 0.239,0.321 0.492,0.453 0.758,0.399 0.27,-0.051 0.469,-0.266 0.602,-0.641 0.132,-0.371 0.16,-0.812 0.082,-1.316 z"
   style="fill:url(#linearGradient274);fill-rule:evenodd"
   id="path280" />
          </g>
        </g>
      </g>
      <g
   id="g282">
        <g
   id="g284">
          <g
   id="g290">
            <path
   inkscape:connector-curvature="0"
   d="m 91.719,37.601 c 0.269,-0.453 0.402,-0.883 0.402,-1.281 0.024,-0.399 -0.082,-0.668 -0.32,-0.801 -0.242,-0.133 -0.535,-0.094 -0.879,0.121 -0.32,0.215 -0.617,0.547 -0.883,1 -0.266,0.426 -0.398,0.852 -0.398,1.281 0,0.399 0.105,0.664 0.32,0.797 0.238,0.137 0.531,0.082 0.879,-0.16 0.348,-0.211 0.64,-0.531 0.879,-0.957 z"
   style="fill:url(#linearGradient292);fill-rule:evenodd"
   id="path298" />
          </g>
        </g>
      </g>
      <g
   id="g300">
        <g
   id="g302">
          <g
   id="g308">
            <path
   inkscape:connector-curvature="0"
   d="m 87.359,46.999 c 0.243,-0.187 0.403,-0.398 0.481,-0.64 0.082,-0.238 0.055,-0.453 -0.078,-0.641 -0.137,-0.183 -0.336,-0.293 -0.602,-0.316 -0.265,0 -0.519,0.09 -0.762,0.277 -0.238,0.188 -0.398,0.403 -0.476,0.641 -0.082,0.265 -0.055,0.492 0.078,0.679 0.133,0.188 0.332,0.282 0.602,0.282 0.265,0 0.519,-0.094 0.757,-0.282 z"
   style="fill:url(#linearGradient310);fill-rule:evenodd"
   id="path316" />
          </g>
        </g>
      </g>
      <g
   id="g318">
        <g
   id="g320">
          <g
   id="g326">
            <path
   inkscape:connector-curvature="0"
   d="m 90.879,46.921 c 0.215,-0.214 0.359,-0.441 0.441,-0.679 0.078,-0.27 0.067,-0.457 -0.039,-0.563 -0.136,-0.133 -0.32,-0.16 -0.562,-0.078 -0.266,0.051 -0.504,0.184 -0.719,0.398 -0.215,0.215 -0.359,0.442 -0.441,0.68 -0.051,0.242 -0.028,0.43 0.082,0.563 0.105,0.132 0.293,0.172 0.558,0.117 0.242,-0.078 0.469,-0.227 0.68,-0.438 z"
   style="fill:url(#linearGradient328);fill-rule:evenodd"
   id="path334" />
          </g>
        </g>
      </g>
      <g
   id="g336">
        <g
   id="g338">
          <g
   id="g344">
            <path
   inkscape:connector-curvature="0"
   d="m 91.961,22.921 c 0.027,-0.402 -0.027,-0.75 -0.16,-1.043 -0.16,-0.265 -0.348,-0.398 -0.563,-0.398 -0.211,-0.027 -0.383,0.105 -0.519,0.398 -0.16,0.27 -0.239,0.602 -0.239,1 -0.027,0.403 0.028,0.735 0.161,1 0.132,0.297 0.304,0.442 0.519,0.442 0.481,0 0.746,-0.469 0.801,-1.399 z"
   style="fill:url(#linearGradient346);fill-rule:evenodd"
   id="path352" />
          </g>
        </g>
      </g>
      <g
   id="g354">
        <g
   id="g356">
          <g
   id="g362">
            <path
   inkscape:connector-curvature="0"
   d="m 64.602,43.8 c -0.055,-0.828 -0.321,-1.519 -0.801,-2.082 -0.508,-0.531 -1.067,-0.773 -1.68,-0.719 -0.641,0.028 -1.16,0.348 -1.562,0.961 -0.399,0.614 -0.571,1.348 -0.52,2.2 0.055,0.828 0.336,1.507 0.84,2.039 0.48,0.562 1.027,0.816 1.641,0.761 0.64,-0.054 1.16,-0.386 1.558,-1 0.402,-0.613 0.574,-1.336 0.524,-2.16 z"
   style="fill:url(#linearGradient364);fill-rule:evenodd"
   id="path370" />
          </g>
        </g>
      </g>
      <g
   id="g372">
        <g
   id="g374">
          <g
   id="g380">
            <path
   inkscape:connector-curvature="0"
   d="m 54.719,36.242 c -0.133,-0.618 -0.414,-1.11 -0.84,-1.481 -0.453,-0.402 -0.891,-0.535 -1.32,-0.402 -0.454,0.109 -0.786,0.414 -1,0.922 -0.184,0.531 -0.211,1.121 -0.079,1.758 0.161,0.64 0.454,1.148 0.879,1.519 0.453,0.375 0.895,0.508 1.321,0.402 0.453,-0.105 0.773,-0.425 0.961,-0.961 0.214,-0.531 0.238,-1.121 0.078,-1.757 z"
   style="fill:url(#linearGradient382);fill-rule:evenodd"
   id="path388" />
          </g>
        </g>
      </g>
      <g
   id="g390">
        <g
   id="g392">
          <g
   id="g398">
            <path
   inkscape:connector-curvature="0"
   d="m 39.801,47.64 c 0.054,-0.746 -0.082,-1.387 -0.403,-1.922 -0.293,-0.558 -0.703,-0.851 -1.238,-0.879 -0.508,-0.054 -0.961,0.176 -1.359,0.68 -0.403,0.48 -0.629,1.094 -0.68,1.84 -0.055,0.75 0.078,1.402 0.399,1.961 0.32,0.535 0.734,0.828 1.242,0.879 0.504,0.027 0.957,-0.2 1.359,-0.68 0.399,-0.504 0.625,-1.133 0.68,-1.879 z"
   style="fill:url(#linearGradient400);fill-rule:evenodd"
   id="path406" />
          </g>
        </g>
      </g>
      <g
   id="g408">
        <g
   id="g410">
          <g
   id="g416">
            <path
   inkscape:connector-curvature="0"
   d="m 41.719,42.8 c -0.024,-0.453 -0.16,-0.828 -0.399,-1.121 -0.242,-0.32 -0.519,-0.465 -0.84,-0.437 -0.292,0.023 -0.535,0.199 -0.718,0.519 -0.188,0.348 -0.27,0.746 -0.242,1.199 0.027,0.454 0.16,0.825 0.402,1.122 0.238,0.32 0.504,0.464 0.797,0.437 0.32,-0.027 0.574,-0.199 0.761,-0.52 0.215,-0.347 0.293,-0.746 0.239,-1.199 z"
   style="fill:url(#linearGradient418);fill-rule:evenodd"
   id="path424" />
          </g>
        </g>
      </g>
      <g
   id="g426">
        <g
   id="g428">
          <g
   id="g434">
            <path
   inkscape:connector-curvature="0"
   d="M 51.121,17.199 C 51.012,16.535 50.762,15.988 50.359,15.558 49.934,15.132 49.48,14.96 49,15.039 c -0.48,0.082 -0.855,0.386 -1.121,0.921 -0.293,0.532 -0.387,1.133 -0.277,1.801 0.105,0.664 0.371,1.211 0.796,1.641 0.403,0.426 0.856,0.597 1.364,0.519 0.476,-0.082 0.851,-0.386 1.117,-0.922 0.266,-0.531 0.348,-1.132 0.242,-1.8 z"
   style="fill:url(#linearGradient436);fill-rule:evenodd"
   id="path442" />
          </g>
        </g>
      </g>
      <g
   id="g444">
        <g
   id="g446">
          <g
   id="g452">
            <path
   inkscape:connector-curvature="0"
   d="m 57.961,20.679 c -0.106,-0.531 -0.359,-0.961 -0.762,-1.277 -0.371,-0.297 -0.758,-0.403 -1.16,-0.32 -0.426,0.105 -0.734,0.371 -0.918,0.796 -0.187,0.457 -0.226,0.95 -0.121,1.481 0.133,0.535 0.375,0.961 0.719,1.281 0.375,0.32 0.773,0.426 1.203,0.32 0.398,-0.082 0.703,-0.347 0.918,-0.8 0.215,-0.453 0.254,-0.946 0.121,-1.481 z"
   style="fill:url(#linearGradient454);fill-rule:evenodd"
   id="path460" />
          </g>
        </g>
      </g>
      <g
   id="g462">
        <g
   id="g464">
          <g
   id="g470">
            <path
   inkscape:connector-curvature="0"
   d="M 59.398,29.921 C 59.16,29.468 58.84,29.148 58.441,28.96 c -0.402,-0.187 -0.773,-0.187 -1.121,0 -0.347,0.188 -0.547,0.493 -0.601,0.918 -0.051,0.457 0.043,0.907 0.281,1.364 0.238,0.453 0.574,0.773 1,0.957 0.398,0.215 0.773,0.226 1.121,0.043 0.32,-0.188 0.504,-0.508 0.559,-0.961 0.082,-0.453 -0.012,-0.907 -0.282,-1.36 z"
   style="fill:url(#linearGradient472);fill-rule:evenodd"
   id="path478" />
          </g>
        </g>
      </g>
      <g
   id="g480">
        <g
   id="g482">
          <g
   id="g488">
            <path
   inkscape:connector-curvature="0"
   d="m 41.879,59.121 c -0.16,-0.586 -0.426,-1.055 -0.801,-1.403 -0.398,-0.344 -0.797,-0.465 -1.199,-0.359 -0.371,0.109 -0.641,0.402 -0.801,0.883 -0.156,0.504 -0.156,1.05 0,1.636 0.16,0.59 0.442,1.055 0.844,1.403 0.371,0.347 0.758,0.465 1.156,0.359 0.375,-0.105 0.641,-0.414 0.801,-0.922 0.16,-0.476 0.16,-1.011 0,-1.597 z"
   style="fill:url(#linearGradient490);fill-rule:evenodd"
   id="path496" />
          </g>
        </g>
      </g>
      <g
   id="g498">
        <g
   id="g500">
          <g
   id="g506">
            <path
   inkscape:connector-curvature="0"
   d="m 48.879,52.519 c -0.106,-0.453 -0.332,-0.812 -0.68,-1.078 -0.344,-0.266 -0.691,-0.348 -1.039,-0.242 -0.348,0.082 -0.613,0.308 -0.801,0.679 -0.16,0.403 -0.187,0.829 -0.078,1.282 0.106,0.453 0.321,0.812 0.641,1.082 0.344,0.265 0.691,0.343 1.039,0.238 0.344,-0.078 0.613,-0.305 0.801,-0.68 0.183,-0.398 0.226,-0.828 0.117,-1.281 z"
   style="fill:url(#linearGradient508);fill-rule:evenodd"
   id="path514" />
          </g>
        </g>
      </g>
      <g
   id="g516">
        <g
   id="g518">
          <g
   id="g524">
            <path
   inkscape:connector-curvature="0"
   d="m 55.84,67.281 c 0.055,-0.508 0,-0.946 -0.16,-1.321 -0.16,-0.375 -0.375,-0.574 -0.641,-0.601 -0.266,-0.024 -0.504,0.133 -0.719,0.48 -0.215,0.321 -0.347,0.735 -0.398,1.243 -0.055,0.503 0,0.933 0.156,1.277 0.137,0.375 0.336,0.574 0.602,0.601 0.265,0.028 0.508,-0.121 0.718,-0.441 0.243,-0.32 0.387,-0.734 0.442,-1.238 z"
   style="fill:url(#linearGradient526);fill-rule:evenodd"
   id="path532" />
          </g>
        </g>
      </g>
      <g
   id="g534">
        <g
   id="g536">
          <g
   id="g542">
            <path
   inkscape:connector-curvature="0"
   d="m 53.602,84.121 c 0.05,-0.563 -0.043,-1.039 -0.282,-1.442 -0.265,-0.426 -0.613,-0.652 -1.039,-0.68 -0.426,-0.054 -0.801,0.106 -1.121,0.481 -0.32,0.375 -0.508,0.84 -0.558,1.398 -0.028,0.563 0.078,1.043 0.32,1.442 0.266,0.398 0.613,0.625 1.039,0.679 0.426,0.028 0.801,-0.132 1.117,-0.48 0.32,-0.371 0.496,-0.84 0.524,-1.398 z"
   style="fill:url(#linearGradient544);fill-rule:evenodd"
   id="path550" />
          </g>
        </g>
      </g>
      <path
   inkscape:connector-curvature="0"
   d="m 70.602,79.601 0.32,0.398 0.797,1.801 h 0.601 c 0.399,0 0.879,0.172 1.442,0.52 l 0.039,-0.84 -1.121,-0.238 c 0.027,-0.563 -0.2,-1.176 -0.68,-1.84 -0.293,-0.43 -0.559,-0.778 -0.801,-1.043 l -0.277,-0.277 0.68,-2.403 2.597,-3 c 0.133,-0.187 0.199,-0.613 0.199,-1.277 l 1,-1.203 -0.078,-3.68 c -0.398,2.105 -0.668,3.266 -0.8,3.48 l -0.719,0.68 -0.082,1.32 c -0.211,0.266 -0.414,0.559 -0.598,0.879 -0.133,0.215 -0.508,0.536 -1.121,0.961 l -0.879,0.563 -1.723,3.68 -0.476,0.398 -3.602,2 c -0.215,0.133 -0.574,0.441 -1.082,0.922 l -0.718,0.68 -0.598,1.597 -3,1.602 -4.723,1.597 C 54.453,87.121 53.387,87.32 52,87.48 l -4.801,0.121 c -0.984,0.531 -1.785,1.066 -2.398,1.598 -0.375,0.32 -1.547,0.988 -3.52,2 l -2.883,1.441 2.641,-1.039 c 1.816,-0.723 2.867,-1.16 3.16,-1.32 0.481,-0.266 1.481,-1 3,-2.199 l 1,-0.083 c 0.668,-0.078 2.403,-0.078 5.199,0 l 5.641,-1.64 C 60,86.015 60.625,85.761 60.922,85.601 61.375,85.335 62.066,85.132 63,84.999 l 1.32,-1.519 0.282,-1.078 1.757,-0.801 c 1.227,-0.586 1.946,-0.961 2.161,-1.121 0.32,-0.266 1.015,-0.559 2.082,-0.879 z"
   style="fill:#f7f8fa;fill-rule:evenodd"
   id="path552" />
      <path
   inkscape:connector-curvature="0"
   d="m 92.238,77.679 -0.84,-3.68 -1.199,-1.32 -0.801,-0.597 c -0.453,-1.469 -0.785,-2.297 -1,-2.481 l -1.597,-2 -1,-1.602 c -0.321,-0.265 -0.879,-0.398 -1.68,-0.398 -0.508,0 -0.976,-0.043 -1.402,-0.121 l -0.52,-0.078 -1.277,0.476 c -0.988,0.27 -1.734,0.375 -2.242,0.321 -0.321,-0.051 -0.774,-0.067 -1.36,-0.039 l -0.8,0.039 -1.2,0.32 -0.199,0.961 0.238,-0.32 c 0.266,-0.215 0.719,-0.305 1.36,-0.282 l 1.679,-0.199 C 79.625,66.546 80.492,66.48 81,66.48 c 0.801,0 1.801,0.105 3,0.32 l 0.602,0.321 c 0.453,0.293 0.824,0.586 1.117,0.878 0.453,0.454 1.082,0.989 1.883,1.602 0.343,0.051 0.519,0.453 0.519,1.199 0,0.453 -0.094,0.84 -0.281,1.16 l -0.32,0.321 -3.321,1.718 1.321,-0.519 c 0.96,-0.32 1.613,-0.481 1.96,-0.481 h 1.321 c 0.879,0.536 1.344,1.067 1.398,1.602 0.055,0.32 0.242,0.906 0.563,1.758 l 0.437,1.199 z"
   style="fill:#f7f8fa;fill-rule:evenodd"
   id="path554" />
    </g>
  </g>
<metadata
   id="metadata235"><rdf:RDF><cc:Work><dc:format>image/svg+xml</dc:format><dc:type
         rdf:resource="http://purl.org/dc/dcmitype/StillImage" /><cc:license
         rdf:resource="http://creativecommons.org/publicdomain/zero/1.0/" /><dc:publisher><cc:Agent
           rdf:about="http://openclipart.org/"><dc:title>Openclipart</dc:title></cc:Agent></dc:publisher><dc:title></dc:title></cc:Work><cc:License
       rdf:about="http://creativecommons.org/publicdomain/zero/1.0/"><cc:permits
         rdf:resource="http://creativecommons.org/ns#Reproduction" /><cc:permits
         rdf:resource="http://creativecommons.org/ns#Distribution" /><cc:permits
         rdf:resource="http://creativecommons.org/ns#DerivativeWorks" /></cc:License></rdf:RDF></metadata></svg>
