<?xml version="1.0" encoding="UTF-8" standalone="no"?>
<svg
   xmlns:dc="http://purl.org/dc/elements/1.1/"
   xmlns:cc="http://creativecommons.org/ns#"
   xmlns:rdf="http://www.w3.org/1999/02/22-rdf-syntax-ns#"
   xmlns:svg="http://www.w3.org/2000/svg"
   xmlns="http://www.w3.org/2000/svg"
   xmlns:xlink="http://www.w3.org/1999/xlink"
   xmlns:sodipodi="http://sodipodi.sourceforge.net/DTD/sodipodi-0.dtd"
   xmlns:inkscape="http://www.inkscape.org/namespaces/inkscape"
   version="1.0"
   width="4.8052502in"
   height="4.8052502in"
   id="svg15"
   sodipodi:docname="scissors.svg"
   inkscape:version="1.0 (4035a4fb49, 2020-05-01)">
  <metadata
     id="metadata19">
    <rdf:RDF>
      <cc:Work
         rdf:about="">
        <dc:format>image/svg+xml</dc:format>
        <dc:type
           rdf:resource="http://purl.org/dc/dcmitype/StillImage" />
        <dc:title />
      </cc:Work>
    </rdf:RDF>
  </metadata>
  <sodipodi:namedview
     inkscape:document-rotation="0"
     pagecolor="#ffffff"
     bordercolor="#666666"
     borderopacity="1"
     objecttolerance="10"
     gridtolerance="10"
     guidetolerance="10"
     inkscape:pageopacity="0"
     inkscape:pageshadow="2"
     inkscape:window-width="1757"
     inkscape:window-height="854"
     id="namedview17"
     showgrid="false"
     inkscape:pagecheckerboard="false"
     inkscape:zoom="1.1476306"
     inkscape:cx="248.27342"
     inkscape:cy="222.66438"
     inkscape:window-x="155"
     inkscape:window-y="36"
     inkscape:window-maximized="0"
     inkscape:current-layer="svg15" />
  <defs
     id="defs3">
    <linearGradient
       id="linearGradient14231">
      <stop
         style="stop-color:#dddddd;stop-opacity:1"
         offset="0"
         id="stop14233" />
      <stop
         style="stop-color:#dddddd;stop-opacity:0"
         offset="1"
         id="stop14235" />
    </linearGradient>
    <linearGradient
       x1="147.8557"
       y1="700.05035"
       x2="110.20206"
       y2="657.97473"
       id="linearGradient14237"
       xlink:href="#linearGradient14231"
       gradientUnits="userSpaceOnUse"
       gradientTransform="matrix(1.766857,0,0,0.565977,-91.92384,-210.7178)" />
    <linearGradient
       x1="147.8557"
       y1="700.05035"
       x2="110.20206"
       y2="657.97473"
       id="linearGradient2112"
       xlink:href="#linearGradient14231"
       gradientUnits="userSpaceOnUse"
       gradientTransform="matrix(1.766857,0,0,0.565977,-90.36186,-209.7173)" />
  </defs>
  <g
     id="layer1"
     transform="matrix(0.82961134,0,0,0.9108658,5.3529729,110.31126)">
    <g
       id="g1406">
      <path
         d="M 39.363466,64.299446 337.79792,160.66327 c -18.97257,35.09171 73.30349,144.11429 155.60238,87.04518 20.7108,-21.98265 -7.01159,-67.50852 -32.11908,-76.44066 -15.58174,-5.5433 -70.33998,-13.92656 -91.92971,-29.03542 C 347.76178,127.1235 351.36609,126.41697 327.89512,119.75059 279.61962,106.03906 58.455926,53.107176 39.363466,64.299446 Z M 360.30533,190.25119 c -14.70285,-18.87243 26.46178,-24.08273 83.96562,-5.03331 58.55187,21.7327 40.93135,54.03963 20.48591,59.53559 -44.8893,12.06673 -90.24902,-29.50575 -104.45153,-54.50228 z"
         style="fill:#737373;fill-rule:evenodd;stroke:none;stroke-width:1;stroke-linecap:butt;stroke-linejoin:miter;stroke-miterlimit:4;stroke-opacity:1"
         id="path1295" />
      <path
         d="M 446.84812,6.1254773 C 380.4031,3.5067771 322.37041,80.832202 337.78562,109.34423 L 39.348116,205.68798 c 19.092458,11.19227 240.255754,-41.72598 288.531254,-55.4375 23.47097,-6.66638 19.87902,-7.35989 41.46875,-22.46875 21.58973,-15.10886 76.35575,-23.51919 91.9375,-29.062503 25.10749,-8.932141 52.80454,-54.45485 32.09375,-76.4375 C 477.94833,11.581268 462.18159,6.7297973 446.84812,6.1254773 Z m 1.09375,16.9687497 c 5.56409,-0.03075 11.20134,0.64791 16.8125,2.15625 20.44544,5.495961 38.05185,37.79856 -20.5,59.53125 -57.50384,19.049423 -98.67161,13.84118 -83.96875,-5.03125 12.4272,-21.871961 48.70761,-56.44103 87.65625,-56.65625 z"
         style="fill:#888888;fill-rule:evenodd;stroke:none;stroke-width:10;stroke-linecap:butt;stroke-linejoin:miter;stroke-miterlimit:4;stroke-opacity:1"
         id="use2824" />
      <path
         d="M 272.49285,130.41706 39.367846,205.69831 c 0.0095,0.006 0.02163,0.0258 0.03125,0.0312 7.35659,4.19379 43.6795,-0.82858 88.500004,-9.375 l 151.28125,-48.6875 z"
         style="fill:url(#linearGradient2112);fill-rule:evenodd;stroke:none;stroke-width:10;stroke-linecap:butt;stroke-linejoin:miter;stroke-miterlimit:4;stroke-opacity:1"
         id="path11952" />
      <path
         d="m 258.25,65.875 a 12.125,12.125 0 1 1 -24.25,0 12.125,12.125 0 1 1 24.25,0 z"
         transform="translate(68.5,69.11888)"
         style="color:#000000;display:inline;overflow:visible;visibility:visible;fill:#b6b6b6;fill-rule:evenodd;stroke:none;stroke-width:1;stroke-linecap:butt;stroke-linejoin:miter;stroke-miterlimit:4;stroke-dashoffset:0;stroke-opacity:1;marker:none;marker-start:none;marker-mid:none;marker-end:none"
         id="path2095" />
      <rect
         width="24.75"
         height="3.21875"
         rx="1.609375"
         ry="0"
         x="-83.199677"
         y="333.41171"
         transform="rotate(-78.69218)"
         style="color:#000000;display:inline;overflow:visible;visibility:visible;fill:#737373;fill-rule:evenodd;stroke:none;stroke-width:1;stroke-linecap:butt;stroke-linejoin:miter;stroke-miterlimit:4;stroke-dashoffset:0;stroke-opacity:1;marker:none;marker-start:none;marker-mid:none;marker-end:none"
         id="rect2855" />
    </g>
  </g>
</svg>
